<svg width="1600" height="900" viewBox="0 0 1600 900" fill="none" xmlns="http://www.w3.org/2000/svg">
  <defs>
    <linearGradient id="bg" x1="0" y1="0" x2="1600" y2="900" gradientUnits="userSpaceOnUse">
      <stop stop-color="#111827"/>
      <stop offset="0.45" stop-color="#1F2937"/>
      <stop offset="1" stop-color="#0F172A"/>
    </linearGradient>
    <linearGradient id="accent" x1="320" y1="160" x2="1280" y2="740" gradientUnits="userSpaceOnUse">
      <stop stop-color="#7C3AED"/>
      <stop offset="0.5" stop-color="#38BDF8"/>
      <stop offset="1" stop-color="#34D399"/>
    </linearGradient>
    <radialGradient id="orb" cx="0" cy="0" r="1" gradientUnits="userSpaceOnUse" gradientTransform="translate(1110 260) rotate(90) scale(220)">
      <stop stop-color="#F472B6" stop-opacity="0.95"/>
      <stop offset="1" stop-color="#F472B6" stop-opacity="0"/>
    </radialGradient>
  </defs>
  <rect width="1600" height="900" fill="url(#bg)"/>
  <rect x="130" y="120" width="1340" height="660" rx="48" fill="url(#accent)" fill-opacity="0.16" stroke="white" stroke-opacity="0.12"/>
  <circle cx="1110" cy="260" r="220" fill="url(#orb)"/>
  <rect x="220" y="200" width="520" height="32" rx="16" fill="white" fill-opacity="0.14"/>
  <rect x="220" y="256" width="420" height="20" rx="10" fill="white" fill-opacity="0.18"/>
  <rect x="220" y="292" width="350" height="20" rx="10" fill="white" fill-opacity="0.12"/>
  <rect x="220" y="400" width="260" height="64" rx="32" fill="#7C3AED"/>
  <rect x="500" y="400" width="260" height="64" rx="32" fill="white" fill-opacity="0.08" stroke="white" stroke-opacity="0.14"/>
  <rect x="220" y="520" width="520" height="220" rx="32" fill="white" fill-opacity="0.08" stroke="white" stroke-opacity="0.1"/>
  <circle cx="1080" cy="520" r="150" fill="#38BDF8" fill-opacity="0.2"/>
  <circle cx="1230" cy="650" r="110" fill="#34D399" fill-opacity="0.2"/>
  <path d="M980 710C1030 630 1100 600 1180 580C1240 565 1310 525 1370 450" stroke="white" stroke-opacity="0.35" stroke-width="18" stroke-linecap="round"/>
  <path d="M970 330C1040 300 1110 310 1170 350C1220 385 1290 385 1360 360" stroke="white" stroke-opacity="0.25" stroke-width="10" stroke-linecap="round"/>
</svg>
